<?xml version="1.0" standalone="no"?>
<!DOCTYPE svg PUBLIC "-//W3C//DTD SVG 20010904//EN"
 "http://www.w3.org/TR/2001/REC-SVG-20010904/DTD/svg10.dtd">
<svg version="1.0" xmlns="http://www.w3.org/2000/svg"
 width="300.000000pt" height="300.000000pt" viewBox="0 0 300.000000 300.000000"
 preserveAspectRatio="xMidYMid meet">
<metadata>
Created by potrace 1.10, written by Peter Selinger 2001-2011
</metadata>
<g transform="translate(0.000000,300.000000) scale(0.100000,-0.100000)"
fill="#f29e16" stroke="none">
<path d="M1360 2925 c-25 -9 -42 -10 -64 -2 -20 7 -34 7 -47 -2 -10 -6 -28
-11 -39 -11 -25 0 -27 -17 -2 -23 11 -3 8 -5 -9 -6 -16 -1 -29 5 -33 14 -7 19
-52 20 -63 1 -8 -15 -64 -33 -133 -43 -19 -3 -39 -12 -43 -19 -4 -8 -16 -14
-25 -14 -9 0 -26 -7 -36 -15 -11 -8 -27 -15 -37 -15 -9 0 -19 -7 -23 -15 -3
-8 -13 -15 -23 -15 -10 0 -27 -7 -37 -15 -11 -8 -28 -15 -38 -15 -10 0 -18 -6
-18 -13 0 -7 -9 -18 -20 -25 -12 -7 -25 -23 -30 -35 -7 -17 -9 -18 -9 -4 -1 9
-3 17 -6 17 -10 0 -75 -69 -75 -79 0 -7 -11 -16 -25 -21 -14 -5 -25 -14 -25
-20 0 -6 -22 -33 -50 -60 -30 -30 -50 -59 -50 -72 0 -19 -2 -20 -10 -8 -8 12
-14 10 -39 -17 -16 -18 -26 -33 -20 -33 5 0 9 -12 9 -26 0 -21 -3 -24 -13 -15
-11 8 -20 4 -40 -18 -14 -16 -23 -32 -20 -35 4 -3 -4 -17 -17 -31 -23 -25 -23
-25 -3 -25 12 0 23 6 26 13 3 6 4 2 4 -11 -1 -19 -6 -23 -29 -20 -22 2 -31 -3
-43 -25 -12 -24 -4 -40 9 -18 9 14 83 22 135 15 36 -5 59 -16 90 -43 22 -20
41 -43 41 -50 0 -8 6 -22 14 -30 15 -18 46 -111 46 -138 0 -11 7 -28 15 -39 8
-10 15 -30 15 -44 0 -14 7 -38 15 -54 8 -15 15 -38 15 -50 1 -11 7 -32 15 -46
8 -14 14 -37 15 -51 0 -14 7 -34 15 -45 8 -10 15 -33 15 -49 0 -17 6 -39 14
-50 7 -11 16 -33 18 -50 3 -16 10 -43 16 -60 6 -16 15 -46 22 -65 7 -19 15
-52 20 -73 4 -21 13 -44 19 -50 6 -6 11 -22 11 -36 0 -15 7 -39 15 -55 8 -15
15 -38 15 -50 0 -12 7 -31 15 -42 8 -10 15 -33 15 -50 0 -16 7 -39 15 -50 14
-18 14 -18 16 6 1 18 3 20 6 7 3 -10 -1 -25 -8 -33 -9 -11 -9 -18 -1 -26 15
-15 29 -2 38 35 3 17 13 41 20 52 8 11 14 29 14 40 0 11 7 29 15 39 8 11 15
29 15 40 0 12 7 30 15 40 8 11 15 29 15 40 0 12 7 30 15 40 8 11 15 28 15 37
0 10 8 32 17 51 9 18 22 45 30 60 7 14 13 34 13 45 0 10 7 27 15 37 8 11 15
29 15 40 0 12 7 30 15 40 8 11 15 28 15 37 0 10 8 32 17 51 9 18 22 45 30 60
7 14 13 35 13 46 0 11 7 25 15 32 8 7 15 19 15 26 0 18 60 102 93 130 14 12
34 25 46 29 12 3 21 11 21 16 0 5 41 9 90 9 52 0 90 -4 90 -10 0 -5 11 -12 24
-16 25 -6 90 -68 111 -106 12 -22 39 -75 70 -143 8 -16 17 -42 21 -57 7 -32
21 -37 27 -10 2 9 2 -3 -1 -28 -3 -34 0 -49 12 -59 9 -7 16 -22 16 -31 0 -25
10 -50 20 -50 5 0 11 15 13 33 2 17 2 4 0 -29 -3 -47 -1 -65 11 -77 9 -9 16
-29 16 -45 0 -16 6 -35 14 -41 8 -7 18 -26 21 -42 4 -16 11 -31 16 -34 5 -4 9
-16 9 -29 0 -12 7 -31 15 -42 8 -10 15 -28 15 -40 0 -11 7 -29 15 -40 8 -10
15 -28 15 -40 0 -11 7 -29 15 -40 8 -10 15 -27 15 -36 0 -24 21 -68 32 -68 13
0 38 64 38 97 0 15 7 37 15 47 8 11 15 30 15 42 0 12 7 35 15 50 8 16 15 41
15 56 0 14 6 39 14 55 18 37 36 90 45 133 4 19 13 45 19 57 7 12 12 32 12 45
0 13 7 32 15 42 8 11 15 34 15 52 0 18 4 35 9 38 5 3 12 22 16 43 4 20 13 46
21 57 8 11 14 34 14 51 0 16 7 39 15 49 8 11 15 34 15 50 0 17 7 40 15 50 8
11 15 34 15 50 0 17 7 40 15 50 8 11 15 32 15 47 0 14 7 32 15 39 8 7 15 18
15 25 0 7 19 30 43 52 33 30 55 42 91 47 52 8 122 0 132 -15 3 -5 10 -9 15 -9
5 0 2 11 -7 25 -11 17 -25 25 -44 25 -30 0 -48 26 -30 44 18 18 11 44 -25 82
-19 20 -35 44 -35 54 0 9 -9 25 -21 36 -17 16 -22 16 -31 4 -8 -12 -9 -12 -4
3 4 12 -10 34 -47 71 -28 29 -79 82 -112 118 -33 35 -66 63 -73 60 -8 -2 -28
12 -45 32 -36 40 -47 44 -48 19 0 -14 -2 -14 -9 3 -10 26 -26 37 -59 40 -14 2
-29 10 -33 19 -5 8 -16 15 -24 15 -8 0 -17 7 -21 15 -3 9 -13 15 -22 14 -31
-3 -41 1 -41 16 0 11 -11 15 -39 15 -22 0 -41 5 -44 13 -3 9 -9 9 -24 1 -16
-10 -24 -7 -48 17 -24 24 -36 29 -79 29 -30 0 -61 6 -74 15 -17 13 -26 13 -43
5 -13 -7 -38 -9 -63 -5 -22 3 -56 6 -73 5 -18 0 -50 -1 -70 -1 -21 0 -51 1
-68 4 -16 3 -46 0 -65 -8z m-71 -94 c11 -7 10 -10 -6 -15 -27 -9 -60 3 -41 15
17 11 29 11 47 0z m496 0 c8 -14 -10 -22 -30 -15 -13 5 -14 8 -3 15 17 11 26
11 33 0z m194 0 c11 -7 10 -10 -6 -15 -24 -8 -55 2 -47 15 7 11 35 11 53 0z
m-961 -8 c-10 -2 -28 -2 -40 0 -13 2 -5 4 17 4 22 1 32 -1 23 -4z m30 -60
c-10 -2 -28 -2 -40 0 -13 2 -5 4 17 4 22 1 32 -1 23 -4z m930 0 c-10 -2 -28
-2 -40 0 -13 2 -5 4 17 4 22 1 32 -1 23 -4z m270 -120 c-10 -2 -28 -2 -40 0
-13 2 -5 4 17 4 22 1 32 -1 23 -4z m172 -124 c0 -5 -7 -9 -15 -9 -15 0 -20 12
-9 23 8 8 24 -1 24 -14z m-1995 -169 c3 -5 -3 -10 -15 -10 -12 0 -18 5 -15 10
3 6 10 10 15 10 5 0 12 -4 15 -10z m-60 -90 c3 -5 -3 -10 -15 -10 -12 0 -18 5
-15 10 3 6 10 10 15 10 5 0 12 -4 15 -10z m2067 -222 c-9 -9 -15 -9 -24 0 -9
9 -7 12 12 12 19 0 21 -3 12 -12z m-1842 -120 c0 -9 -4 -20 -10 -23 -6 -4 -10
9 -10 32 0 28 3 34 10 23 5 -8 10 -23 10 -32z m47 -190 c-2 -13 -4 -5 -4 17
-1 22 1 32 4 23 2 -10 2 -28 0 -40z m515 -20 c-13 -13 -26 8 -17 30 6 16 7 16
17 -1 7 -13 7 -22 0 -29z m-2 -100 c0 -19 -2 -20 -10 -8 -13 19 -13 30 0 30 6
0 10 -10 10 -22z m-453 -90 c-2 -13 -4 -5 -4 17 -1 22 1 32 4 23 2 -10 2 -28
0 -40z m1327 -350 c4 -24 3 -38 -4 -38 -5 0 -10 19 -10 42 0 49 5 47 14 -4z
m143 -40 c-2 -13 -4 -5 -4 17 -1 22 1 32 4 23 2 -10 2 -28 0 -40z m-57 -151
c0 -19 -1 -19 -20 -2 -21 19 -18 37 5 28 8 -3 15 -14 15 -26z m-3 -84 c-3 -10
-5 -2 -5 17 0 19 2 27 5 18 2 -10 2 -26 0 -35z"/>
<path d="M2890 1893 c0 -12 5 -25 10 -28 13 -8 13 15 0 35 -8 12 -10 11 -10
-7z"/>
<path d="M70 1886 c0 -8 5 -18 10 -21 6 -3 10 3 10 14 0 12 -4 21 -10 21 -5 0
-10 -6 -10 -14z"/>
<path d="M104 1791 c5 -67 4 -101 -3 -106 -6 -3 -12 2 -12 12 -1 10 -3 25 -4
33 -1 8 -3 20 -4 27 0 6 -9 10 -18 8 -13 -1 -17 -9 -15 -26 14 -97 13 -136 -2
-148 -20 -17 -20 -35 -1 -51 17 -14 21 -95 5 -105 -13 -8 -13 -48 1 -62 7 -7
9 -30 5 -60 -12 -107 -12 -106 9 -109 11 -2 23 2 27 9 13 21 8 -36 -7 -78 -18
-50 -19 -58 -1 -52 20 8 34 -12 38 -53 2 -26 7 -35 21 -34 18 2 23 -22 8 -45
-6 -9 -2 -20 10 -32 11 -11 19 -28 19 -40 0 -12 8 -23 20 -26 16 -4 19 -11 15
-34 -4 -21 -1 -31 10 -35 8 -4 15 -14 15 -24 0 -10 9 -21 19 -25 11 -3 18 -12
15 -18 -2 -7 10 -29 29 -49 18 -20 31 -40 30 -45 -4 -11 64 -83 77 -83 6 0 19
9 30 20 l20 20 0 -20 c0 -13 -7 -20 -20 -20 -28 0 -25 -14 11 -51 21 -22 27
-35 20 -42 -7 -7 0 -15 22 -26 22 -11 31 -22 30 -36 -1 -11 0 -14 3 -7 3 6 10
12 16 12 12 0 68 -58 68 -71 0 -5 7 -9 15 -9 8 0 15 -5 15 -12 0 -9 3 -9 12 0
9 9 16 8 30 -5 10 -9 18 -21 18 -27 0 -7 19 -18 43 -26 23 -8 43 -21 43 -27 3
-27 5 -27 19 -9 12 16 15 16 15 4 0 -21 36 -52 45 -39 10 17 46 -6 39 -24 -5
-12 4 -15 45 -15 41 0 49 -3 45 -15 -5 -12 6 -15 62 -17 38 0 80 0 94 1 20 1
28 -5 37 -30 12 -31 12 -31 65 -23 29 4 62 7 73 6 11 -2 34 -2 52 -2 18 0 35
-5 38 -10 8 -14 142 -13 151 1 4 6 20 8 39 5 19 -4 36 -3 39 2 3 5 27 5 53 1
73 -12 86 -11 79 6 -3 10 1 15 13 15 11 0 21 5 23 12 5 13 27 16 121 17 54 1
67 4 67 17 0 9 8 14 18 13 44 -4 64 1 58 16 -6 16 22 35 42 28 7 -3 20 1 28 8
14 12 14 14 -2 26 -17 12 -17 13 3 13 11 0 24 -7 27 -16 3 -8 10 -12 16 -9 6
4 8 10 5 15 -5 8 53 40 73 40 15 0 21 37 9 49 -12 12 -10 13 50 13 41 0 43 1
43 30 0 25 2 28 14 19 12 -10 18 -7 32 14 15 24 17 24 30 8 12 -16 13 -15 14
15 0 28 3 32 27 32 20 0 24 3 16 11 -8 8 -2 20 23 45 18 19 38 34 44 34 5 0
10 6 10 14 0 8 10 22 21 30 14 9 19 21 15 31 -4 11 -1 15 12 13 10 -2 17 3 17
14 0 9 9 25 19 36 10 12 15 25 12 30 -3 5 2 9 12 8 10 0 17 6 17 16 0 10 8 23
17 30 23 17 47 77 43 108 -1 14 0 17 2 7 3 -12 10 -16 20 -13 8 3 16 6 17 6 1
0 1 12 -1 27 -2 16 1 35 7 43 9 13 12 12 25 -4 14 -18 15 -17 15 26 0 26 5 48
10 50 6 2 13 35 15 73 7 123 18 155 52 155 12 0 14 8 9 33 -13 66 -12 132 1
153 9 14 10 29 3 53 -5 18 -6 46 -3 63 3 16 0 40 -7 53 -10 19 -10 27 -1 39 8
10 9 16 1 21 -13 8 -13 52 0 60 6 3 10 21 10 38 -1 29 -2 30 -14 14 -13 -16
-14 -16 -28 5 -8 13 -15 45 -16 71 0 27 -3 51 -7 55 -10 10 -25 -20 -25 -53 0
-16 -7 -39 -15 -49 -8 -11 -15 -30 -15 -42 0 -12 -7 -35 -15 -50 -8 -16 -15
-39 -15 -50 0 -12 -7 -35 -15 -50 -8 -16 -15 -40 -15 -54 0 -14 -7 -34 -15
-44 -8 -11 -15 -34 -15 -50 0 -17 -7 -40 -15 -50 -8 -11 -15 -31 -15 -45 0
-14 -7 -35 -15 -45 -8 -11 -15 -32 -15 -47 0 -15 -7 -40 -15 -55 -8 -16 -15
-36 -15 -45 0 -9 -7 -30 -15 -45 -8 -16 -15 -39 -15 -50 0 -12 -7 -35 -15 -50
-8 -16 -15 -39 -15 -50 0 -12 -7 -35 -15 -50 -8 -16 -15 -38 -15 -49 -1 -11
-7 -31 -15 -45 -8 -14 -14 -35 -15 -48 -1 -80 -144 -266 -230 -298 -8 -3 -30
-13 -48 -22 -49 -23 -229 -23 -265 1 -15 9 -35 17 -46 17 -10 0 -21 7 -25 15
-3 8 -12 15 -21 15 -45 0 -179 182 -201 273 -3 15 -10 30 -15 33 -5 3 -9 14
-9 26 0 11 -6 32 -13 46 -8 15 -21 42 -30 60 -9 19 -17 41 -17 51 0 9 -7 26
-15 37 -8 10 -15 28 -15 39 0 11 -6 29 -14 40 -7 11 -17 35 -21 53 -3 17 -11
32 -16 32 -5 0 -9 13 -9 29 0 17 -5 33 -11 37 -13 8 -29 -13 -29 -39 0 -10 -7
-25 -15 -33 -8 -9 -15 -28 -15 -43 0 -16 -7 -34 -15 -41 -8 -7 -15 -23 -15
-35 0 -13 -8 -38 -17 -57 -9 -18 -22 -45 -30 -60 -7 -14 -13 -34 -13 -45 0
-10 -7 -27 -15 -37 -8 -11 -15 -29 -15 -40 0 -12 -7 -30 -15 -40 -8 -11 -15
-30 -15 -42 0 -12 -7 -27 -15 -34 -8 -7 -15 -20 -15 -30 0 -10 -7 -23 -15 -30
-8 -7 -15 -16 -15 -20 0 -25 -153 -160 -182 -160 -7 0 -24 -8 -38 -17 -35 -24
-235 -24 -270 0 -14 9 -30 17 -38 17 -34 0 -182 136 -182 168 0 5 -6 15 -14
22 -8 6 -16 24 -18 38 -2 18 -9 27 -19 26 -13 -1 -15 7 -11 42 3 29 0 51 -10
66 -17 27 -48 119 -48 145 0 10 -7 31 -15 47 -8 15 -15 38 -15 50 0 12 -7 31
-15 42 -8 10 -15 33 -15 50 0 16 -7 39 -15 50 -8 10 -15 31 -15 45 0 14 -7 34
-15 45 -8 10 -15 32 -15 47 0 16 -5 37 -11 48 -10 20 -29 81 -50 164 -6 22
-14 44 -20 50 -5 5 -9 20 -9 35 0 31 -14 55 -28 46 -6 -3 -10 14 -10 45 0 28
-5 56 -11 62 -6 6 -11 23 -11 38 0 35 -9 59 -22 59 -7 0 -8 -34 -4 -99z m86
-258 c0 -26 -3 -34 -11 -26 -9 9 -3 63 7 63 2 0 4 -17 4 -37z m2620 5 c0 -5
-4 -8 -10 -8 -5 0 -10 10 -10 23 0 18 2 19 10 7 5 -8 10 -18 10 -22z m-2560
-200 c0 -16 -3 -19 -11 -11 -6 6 -8 16 -5 22 11 17 16 13 16 -11z m-148 -62
c-9 -18 -11 -16 -11 19 0 33 1 37 10 21 8 -12 8 -25 1 -40z m1404 -163 c-11
-11 -19 6 -11 24 8 17 8 17 12 0 3 -10 2 -21 -1 -24z m-1139 -195 c-2 -13 -4
-5 -4 17 -1 22 1 32 4 23 2 -10 2 -28 0 -40z m2348 -58 c-4 -11 -11 -18 -16
-15 -11 7 -12 48 -2 59 11 11 25 -23 18 -44z m-1345 -36 c0 -8 -4 -14 -10 -14
-5 0 -10 9 -10 21 0 11 5 17 10 14 6 -3 10 -13 10 -21z m256 -11 c-11 -11 -19
6 -11 24 8 17 8 17 12 0 3 -10 2 -21 -1 -24z m936 -85 c-9 -9 -12 -7 -12 12 0
19 3 21 12 12 9 -9 9 -15 0 -24z m8 -123 c0 -8 -4 -15 -10 -15 -5 0 -10 7 -10
15 0 8 5 15 10 15 6 0 10 -7 10 -15z m-160 -165 c0 -13 -7 -20 -20 -20 -19 0
-19 1 -2 19 22 25 22 25 22 1z m-1684 -28 c0 -15 -4 -16 -23 -8 -29 14 -29 26
0 26 15 0 23 -6 23 -18z m1564 8 c0 -5 -6 -10 -14 -10 -8 0 -18 5 -21 10 -3 6
3 10 14 10 12 0 21 -4 21 -10z m-1610 -40 c16 -16 17 -20 5 -20 -8 0 -24 9
-35 20 -16 16 -17 20 -5 20 8 0 24 -9 35 -20z m1593 -6 c13 -5 13 -8 -4 -25
-10 -10 -27 -19 -36 -19 -17 1 -17 1 0 11 9 5 17 17 17 24 0 17 2 17 23 9z"/>
<path d="M1075 80 c-3 -5 3 -10 14 -10 12 0 21 5 21 10 0 6 -6 10 -14 10 -8 0
-18 -4 -21 -10z"/>
<path d="M1880 80 c0 -5 7 -10 15 -10 8 0 15 5 15 10 0 6 -7 10 -15 10 -8 0
-15 -4 -15 -10z"/>
</g>
</svg>
