<?xml version="1.0"?>
<svg width="640" height="480" xmlns="http://www.w3.org/2000/svg" xmlns:svg="http://www.w3.org/2000/svg" xmlns:xlink="http://www.w3.org/1999/xlink">
 <!-- Created with SVG-edit - http://svg-edit.googlecode.com/ -->
 <defs>
  <symbol id="svg_3" preserveAspectRatio="xMidYMid meet" viewBox="0 0 300.000000 300.000000" height="300.000000pt" width="300.000000pt" xmlns="http://www.w3.org/2000/svg">
   <metadata>Created by potrace 1.10, written by Peter Selinger 2001-2011</metadata>
   <g fill="#f29e16" transform="translate(0.000000,300.000000) scale(0.100000,-0.100000)">
    <path d="m1360,2925c-25,-9 -42,-10 -64,-2c-20,7 -34,7 -47,-2c-10,-6 -28,-11 -39,-11c-25,0 -27,-17 -2,-23c11,-3 8,-5 -9,-6c-16,-1 -29,5 -33,14c-7,19 -52,20 -63,1c-8,-15 -64,-33 -133,-43c-19,-3 -39,-12 -43,-19c-4,-8 -16,-14 -25,-14c-9,0 -26,-7 -36,-15c-11,-8 -27,-15 -37,-15c-9,0 -19,-7 -23,-15c-3,-8 -13,-15 -23,-15c-10,0 -27,-7 -37,-15c-11,-8 -28,-15 -38,-15c-10,0 -18,-6 -18,-13c0,-7 -9,-18 -20,-25c-12,-7 -25,-23 -30,-35c-7,-17 -9,-18 -9,-4c-1,9 -3,17 -6,17c-10,0 -75,-69 -75,-79c0,-7 -11,-16 -25,-21c-14,-5 -25,-14 -25,-20c0,-6 -22,-33 -50,-60c-30,-30 -50,-59 -50,-72c0,-19 -2,-20 -10,-8c-8,12 -14,10 -39,-17c-16,-18 -26,-33 -20,-33c5,0 9,-12 9,-26c0,-21 -3,-24 -13,-15c-11,8 -20,4 -40,-18c-14,-16 -23,-32 -20,-35c4,-3 -4,-17 -17,-31c-23,-25 -23,-25 -3,-25c12,0 23,6 26,13c3,6 4,2 4,-11c-1,-19 -6,-23 -29,-20c-22,2 -31,-3 -43,-25c-12,-24 -4,-40 9,-18c9,14 83,22 135,15c36,-5 59,-16 90,-43c22,-20 41,-43 41,-50c0,-8 6,-22 14,-30c15,-18 46,-111 46,-138c0,-11 7,-28 15,-39c8,-10 15,-30 15,-44c0,-14 7,-38 15,-54c8,-15 15,-38 15,-50c1,-11 7,-32 15,-46c8,-14 14,-37 15,-51c0,-14 7,-34 15,-45c8,-10 15,-33 15,-49c0,-17 6,-39 14,-50c7,-11 16,-33 18,-50c3,-16 10,-43 16,-60c6,-16 15,-46 22,-65c7,-19 15,-52 20,-73c4,-21 13,-44 19,-50c6,-6 11,-22 11,-36c0,-15 7,-39 15,-55c8,-15 15,-38 15,-50c0,-12 7,-31 15,-42c8,-10 15,-33 15,-50c0,-16 7,-39 15,-50c14,-18 14,-18 16,6c1,18 3,20 6,7c3,-10 -1,-25 -8,-33c-9,-11 -9,-18 -1,-26c15,-15 29,-2 38,35c3,17 13,41 20,52c8,11 14,29 14,40c0,11 7,29 15,39c8,11 15,29 15,40c0,12 7,30 15,40c8,11 15,29 15,40c0,12 7,30 15,40c8,11 15,28 15,37c0,10 8,32 17,51c9,18 22,45 30,60c7,14 13,34 13,45c0,10 7,27 15,37c8,11 15,29 15,40c0,12 7,30 15,40c8,11 15,28 15,37c0,10 8,32 17,51c9,18 22,45 30,60c7,14 13,35 13,46c0,11 7,25 15,32c8,7 15,19 15,26c0,18 60,102 93,130c14,12 34,25 46,29c12,3 21,11 21,16c0,5 41,9 90,9c52,0 90,-4 90,-10c0,-5 11,-12 24,-16c25,-6 90,-68 111,-106c12,-22 39,-75 70,-143c8,-16 17,-42 21,-57c7,-32 21,-37 27,-10c2,9 2,-3 -1,-28c-3,-34 0,-49 12,-59c9,-7 16,-22 16,-31c0,-25 10,-50 20,-50c5,0 11,15 13,33c2,17 2,4 0,-29c-3,-47 -1,-65 11,-77c9,-9 16,-29 16,-45c0,-16 6,-35 14,-41c8,-7 18,-26 21,-42c4,-16 11,-31 16,-34c5,-4 9,-16 9,-29c0,-12 7,-31 15,-42c8,-10 15,-28 15,-40c0,-11 7,-29 15,-40c8,-10 15,-28 15,-40c0,-11 7,-29 15,-40c8,-10 15,-27 15,-36c0,-24 21,-68 32,-68c13,0 38,64 38,97c0,15 7,37 15,47c8,11 15,30 15,42c0,12 7,35 15,50c8,16 15,41 15,56c0,14 6,39 14,55c18,37 36,90 45,133c4,19 13,45 19,57c7,12 12,32 12,45c0,13 7,32 15,42c8,11 15,34 15,52c0,18 4,35 9,38c5,3 12,22 16,43c4,20 13,46 21,57c8,11 14,34 14,51c0,16 7,39 15,49c8,11 15,34 15,50c0,17 7,40 15,50c8,11 15,34 15,50c0,17 7,40 15,50c8,11 15,32 15,47c0,14 7,32 15,39c8,7 15,18 15,25c0,7 19,30 43,52c33,30 55,42 91,47c52,8 122,0 132,-15c3,-5 10,-9 15,-9c5,0 2,11 -7,25c-11,17 -25,25 -44,25c-30,0 -48,26 -30,44c18,18 11,44 -25,82c-19,20 -35,44 -35,54c0,9 -9,25 -21,36c-17,16 -22,16 -31,4c-8,-12 -9,-12 -4,3c4,12 -10,34 -47,71c-28,29 -79,82 -112,118c-33,35 -66,63 -73,60c-8,-2 -28,12 -45,32c-36,40 -47,44 -48,19c0,-14 -2,-14 -9,3c-10,26 -26,37 -59,40c-14,2 -29,10 -33,19c-5,8 -16,15 -24,15c-8,0 -17,7 -21,15c-3,9 -13,15 -22,14c-31,-3 -41,1 -41,16c0,11 -11,15 -39,15c-22,0 -41,5 -44,13c-3,9 -9,9 -24,1c-16,-10 -24,-7 -48,17c-24,24 -36,29 -79,29c-30,0 -61,6 -74,15c-17,13 -26,13 -43,5c-13,-7 -38,-9 -63,-5c-22,3 -56,6 -73,5c-18,0 -50,-1 -70,-1c-21,0 -51,1 -68,4c-16,3 -46,0 -65,-8zm-71,-94c11,-7 10,-10 -6,-15c-27,-9 -60,3 -41,15c17,11 29,11 47,0zm496,0c8,-14 -10,-22 -30,-15c-13,5 -14,8 -3,15c17,11 26,11 33,0zm194,0c11,-7 10,-10 -6,-15c-24,-8 -55,2 -47,15c7,11 35,11 53,0zm-961,-8c-10,-2 -28,-2 -40,0c-13,2 -5,4 17,4c22,1 32,-1 23,-4zm30,-60c-10,-2 -28,-2 -40,0c-13,2 -5,4 17,4c22,1 32,-1 23,-4zm930,0c-10,-2 -28,-2 -40,0c-13,2 -5,4 17,4c22,1 32,-1 23,-4zm270,-120c-10,-2 -28,-2 -40,0c-13,2 -5,4 17,4c22,1 32,-1 23,-4zm172,-124c0,-5 -7,-9 -15,-9c-15,0 -20,12 -9,23c8,8 24,-1 24,-14zm-1995,-169c3,-5 -3,-10 -15,-10c-12,0 -18,5 -15,10c3,6 10,10 15,10c5,0 12,-4 15,-10zm-60,-90c3,-5 -3,-10 -15,-10c-12,0 -18,5 -15,10c3,6 10,10 15,10c5,0 12,-4 15,-10zm2067,-222c-9,-9 -15,-9 -24,0c-9,9 -7,12 12,12c19,0 21,-3 12,-12zm-1842,-120c0,-9 -4,-20 -10,-23c-6,-4 -10,9 -10,32c0,28 3,34 10,23c5,-8 10,-23 10,-32zm47,-190c-2,-13 -4,-5 -4,17c-1,22 1,32 4,23c2,-10 2,-28 0,-40zm515,-20c-13,-13 -26,8 -17,30c6,16 7,16 17,-1c7,-13 7,-22 0,-29zm-2,-100c0,-19 -2,-20 -10,-8c-13,19 -13,30 0,30c6,0 10,-10 10,-22zm-453,-90c-2,-13 -4,-5 -4,17c-1,22 1,32 4,23c2,-10 2,-28 0,-40zm1327,-350c4,-24 3,-38 -4,-38c-5,0 -10,19 -10,42c0,49 5,47 14,-4zm143,-40c-2,-13 -4,-5 -4,17c-1,22 1,32 4,23c2,-10 2,-28 0,-40zm-57,-151c0,-19 -1,-19 -20,-2c-21,19 -18,37 5,28c8,-3 15,-14 15,-26zm-3,-84c-3,-10 -5,-2 -5,17c0,19 2,27 5,18c2,-10 2,-26 0,-35z"/>
    <path d="m2890,1893c0,-12 5,-25 10,-28c13,-8 13,15 0,35c-8,12 -10,11 -10,-7z"/>
    <path d="m70,1886c0,-8 5,-18 10,-21c6,-3 10,3 10,14c0,12 -4,21 -10,21c-5,0 -10,-6 -10,-14z"/>
    <path d="m104,1791c5,-67 4,-101 -3,-106c-6,-3 -12,2 -12,12c-1,10 -3,25 -4,33c-1,8 -3,20 -4,27c0,6 -9,10 -18,8c-13,-1 -17,-9 -15,-26c14,-97 13,-136 -2,-148c-20,-17 -20,-35 -1,-51c17,-14 21,-95 5,-105c-13,-8 -13,-48 1,-62c7,-7 9,-30 5,-60c-12,-107 -12,-106 9,-109c11,-2 23,2 27,9c13,21 8,-36 -7,-78c-18,-50 -19,-58 -1,-52c20,8 34,-12 38,-53c2,-26 7,-35 21,-34c18,2 23,-22 8,-45c-6,-9 -2,-20 10,-32c11,-11 19,-28 19,-40c0,-12 8,-23 20,-26c16,-4 19,-11 15,-34c-4,-21 -1,-31 10,-35c8,-4 15,-14 15,-24c0,-10 9,-21 19,-25c11,-3 18,-12 15,-18c-2,-7 10,-29 29,-49c18,-20 31,-40 30,-45c-4,-11 64,-83 77,-83c6,0 19,9 30,20l20,20l0,-20c0,-13 -7,-20 -20,-20c-28,0 -25,-14 11,-51c21,-22 27,-35 20,-42c-7,-7 0,-15 22,-26c22,-11 31,-22 30,-36c-1,-11 0,-14 3,-7c3,6 10,12 16,12c12,0 68,-58 68,-71c0,-5 7,-9 15,-9c8,0 15,-5 15,-12c0,-9 3,-9 12,0c9,9 16,8 30,-5c10,-9 18,-21 18,-27c0,-7 19,-18 43,-26c23,-8 43,-21 43,-27c3,-27 5,-27 19,-9c12,16 15,16 15,4c0,-21 36,-52 45,-39c10,17 46,-6 39,-24c-5,-12 4,-15 45,-15c41,0 49,-3 45,-15c-5,-12 6,-15 62,-17c38,0 80,0 94,1c20,1 28,-5 37,-30c12,-31 12,-31 65,-23c29,4 62,7 73,6c11,-2 34,-2 52,-2c18,0 35,-5 38,-10c8,-14 142,-13 151,1c4,6 20,8 39,5c19,-4 36,-3 39,2c3,5 27,5 53,1c73,-12 86,-11 79,6c-3,10 1,15 13,15c11,0 21,5 23,12c5,13 27,16 121,17c54,1 67,4 67,17c0,9 8,14 18,13c44,-4 64,1 58,16c-6,16 22,35 42,28c7,-3 20,1 28,8c14,12 14,14 -2,26c-17,12 -17,13 3,13c11,0 24,-7 27,-16c3,-8 10,-12 16,-9c6,4 8,10 5,15c-5,8 53,40 73,40c15,0 21,37 9,49c-12,12 -10,13 50,13c41,0 43,1 43,30c0,25 2,28 14,19c12,-10 18,-7 32,14c15,24 17,24 30,8c12,-16 13,-15 14,15c0,28 3,32 27,32c20,0 24,3 16,11c-8,8 -2,20 23,45c18,19 38,34 44,34c5,0 10,6 10,14c0,8 10,22 21,30c14,9 19,21 15,31c-4,11 -1,15 12,13c10,-2 17,3 17,14c0,9 9,25 19,36c10,12 15,25 12,30c-3,5 2,9 12,8c10,0 17,6 17,16c0,10 8,23 17,30c23,17 47,77 43,108c-1,14 0,17 2,7c3,-12 10,-16 20,-13c8,3 16,6 17,6c1,0 1,12 -1,27c-2,16 1,35 7,43c9,13 12,12 25,-4c14,-18 15,-17 15,26c0,26 5,48 10,50c6,2 13,35 15,73c7,123 18,155 52,155c12,0 14,8 9,33c-13,66 -12,132 1,153c9,14 10,29 3,53c-5,18 -6,46 -3,63c3,16 0,40 -7,53c-10,19 -10,27 -1,39c8,10 9,16 1,21c-13,8 -13,52 0,60c6,3 10,21 10,38c-1,29 -2,30 -14,14c-13,-16 -14,-16 -28,5c-8,13 -15,45 -16,71c0,27 -3,51 -7,55c-10,10 -25,-20 -25,-53c0,-16 -7,-39 -15,-49c-8,-11 -15,-30 -15,-42c0,-12 -7,-35 -15,-50c-8,-16 -15,-39 -15,-50c0,-12 -7,-35 -15,-50c-8,-16 -15,-40 -15,-54c0,-14 -7,-34 -15,-44c-8,-11 -15,-34 -15,-50c0,-17 -7,-40 -15,-50c-8,-11 -15,-31 -15,-45c0,-14 -7,-35 -15,-45c-8,-11 -15,-32 -15,-47c0,-15 -7,-40 -15,-55c-8,-16 -15,-36 -15,-45c0,-9 -7,-30 -15,-45c-8,-16 -15,-39 -15,-50c0,-12 -7,-35 -15,-50c-8,-16 -15,-39 -15,-50c0,-12 -7,-35 -15,-50c-8,-16 -15,-38 -15,-49c-1,-11 -7,-31 -15,-45c-8,-14 -14,-35 -15,-48c-1,-80 -144,-266 -230,-298c-8,-3 -30,-13 -48,-22c-49,-23 -229,-23 -265,1c-15,9 -35,17 -46,17c-10,0 -21,7 -25,15c-3,8 -12,15 -21,15c-45,0 -179,182 -201,273c-3,15 -10,30 -15,33c-5,3 -9,14 -9,26c0,11 -6,32 -13,46c-8,15 -21,42 -30,60c-9,19 -17,41 -17,51c0,9 -7,26 -15,37c-8,10 -15,28 -15,39c0,11 -6,29 -14,40c-7,11 -17,35 -21,53c-3,17 -11,32 -16,32c-5,0 -9,13 -9,29c0,17 -5,33 -11,37c-13,8 -29,-13 -29,-39c0,-10 -7,-25 -15,-33c-8,-9 -15,-28 -15,-43c0,-16 -7,-34 -15,-41c-8,-7 -15,-23 -15,-35c0,-13 -8,-38 -17,-57c-9,-18 -22,-45 -30,-60c-7,-14 -13,-34 -13,-45c0,-10 -7,-27 -15,-37c-8,-11 -15,-29 -15,-40c0,-12 -7,-30 -15,-40c-8,-11 -15,-30 -15,-42c0,-12 -7,-27 -15,-34c-8,-7 -15,-20 -15,-30c0,-10 -7,-23 -15,-30c-8,-7 -15,-16 -15,-20c0,-25 -153,-160 -182,-160c-7,0 -24,-8 -38,-17c-35,-24 -235,-24 -270,0c-14,9 -30,17 -38,17c-34,0 -182,136 -182,168c0,5 -6,15 -14,22c-8,6 -16,24 -18,38c-2,18 -9,27 -19,26c-13,-1 -15,7 -11,42c3,29 0,51 -10,66c-17,27 -48,119 -48,145c0,10 -7,31 -15,47c-8,15 -15,38 -15,50c0,12 -7,31 -15,42c-8,10 -15,33 -15,50c0,16 -7,39 -15,50c-8,10 -15,31 -15,45c0,14 -7,34 -15,45c-8,10 -15,32 -15,47c0,16 -5,37 -11,48c-10,20 -29,81 -50,164c-6,22 -14,44 -20,50c-5,5 -9,20 -9,35c0,31 -14,55 -28,46c-6,-3 -10,14 -10,45c0,28 -5,56 -11,62c-6,6 -11,23 -11,38c0,35 -9,59 -22,59c-7,0 -8,-34 -4,-99zm86,-258c0,-26 -3,-34 -11,-26c-9,9 -3,63 7,63c2,0 4,-17 4,-37zm2620,5c0,-5 -4,-8 -10,-8c-5,0 -10,10 -10,23c0,18 2,19 10,7c5,-8 10,-18 10,-22zm-2560,-200c0,-16 -3,-19 -11,-11c-6,6 -8,16 -5,22c11,17 16,13 16,-11zm-148,-62c-9,-18 -11,-16 -11,19c0,33 1,37 10,21c8,-12 8,-25 1,-40zm1404,-163c-11,-11 -19,6 -11,24c8,17 8,17 12,0c3,-10 2,-21 -1,-24zm-1139,-195c-2,-13 -4,-5 -4,17c-1,22 1,32 4,23c2,-10 2,-28 0,-40zm2348,-58c-4,-11 -11,-18 -16,-15c-11,7 -12,48 -2,59c11,11 25,-23 18,-44zm-1345,-36c0,-8 -4,-14 -10,-14c-5,0 -10,9 -10,21c0,11 5,17 10,14c6,-3 10,-13 10,-21zm256,-11c-11,-11 -19,6 -11,24c8,17 8,17 12,0c3,-10 2,-21 -1,-24zm936,-85c-9,-9 -12,-7 -12,12c0,19 3,21 12,12c9,-9 9,-15 0,-24zm8,-123c0,-8 -4,-15 -10,-15c-5,0 -10,7 -10,15c0,8 5,15 10,15c6,0 10,-7 10,-15zm-160,-165c0,-13 -7,-20 -20,-20c-19,0 -19,1 -2,19c22,25 22,25 22,1zm-1684,-28c0,-15 -4,-16 -23,-8c-29,14 -29,26 0,26c15,0 23,-6 23,-18zm1564,8c0,-5 -6,-10 -14,-10c-8,0 -18,5 -21,10c-3,6 3,10 14,10c12,0 21,-4 21,-10zm-1610,-40c16,-16 17,-20 5,-20c-8,0 -24,9 -35,20c-16,16 -17,20 -5,20c8,0 24,-9 35,-20zm1593,-6c13,-5 13,-8 -4,-25c-10,-10 -27,-19 -36,-19c-17,1 -17,1 0,11c9,5 17,17 17,24c0,17 2,17 23,9z"/>
    <path d="m1075,80c-3,-5 3,-10 14,-10c12,0 21,5 21,10c0,6 -6,10 -14,10c-8,0 -18,-4 -21,-10z"/>
    <path d="m1880,80c0,-5 7,-10 15,-10c8,0 15,5 15,10c0,6 -7,10 -15,10c-8,0 -15,-4 -15,-10z"/>
   </g>
  </symbol>
 </defs>
 <g>
  <title>Layer 1</title>
  <use x="0" y="0" transform="matrix(0.1519778523349237,0,0,0.14537064768094457,0.5846539507500311,3.5236624414289732) " xlink:href="#svg_3" id="svg_4"/>
 </g>
</svg>